<svg version="1.1" id="Layer_1" xmlns="http://www.w3.org/2000/svg" xmlns:xlink="http://www.w3.org/1999/xlink" x="0px" y="0px"
	 width="100%" viewBox="0 0 1024 1024" enable-background="new 0 0 1024 1024" xml:space="preserve">
<path fill="#000000" opacity="1.000000" stroke="none" 
	d="
M438.429169,134.381165 
	C467.102051,127.939690 495.747253,125.923050 524.644531,126.728889 
	C551.296997,127.472122 577.402466,132.064667 602.436523,140.834702 
	C623.418823,148.185318 644.107544,156.522720 663.600403,167.675247 
	C683.100464,178.831863 700.157227,193.094879 717.295410,207.287262 
	C722.605042,211.684250 726.242371,217.970657 731.342285,222.798416 
	C736.270203,227.463318 741.280273,231.971283 746.580078,236.246384 
	C751.742371,240.410629 754.642944,246.737396 758.273438,252.308609 
	C762.265198,258.434296 766.131287,264.646027 771.271240,269.952240 
	C775.312012,274.123779 776.450317,279.936401 779.209717,284.836945 
	C789.151794,302.493958 796.083862,321.401184 801.828186,340.708679 
	C809.617737,366.890381 815.455627,393.376801 815.609375,421.023865 
	C815.713257,439.694519 816.523132,458.348083 813.192383,476.778992 
	C807.029053,510.883209 795.333679,543.087524 779.839172,574.094849 
	C773.445435,586.889648 764.835083,598.011841 756.999573,609.742859 
	C753.031189,615.684326 748.742004,621.410583 744.707031,627.308838 
	C742.512878,630.516052 743.969482,631.831787 747.367615,632.816956 
	C752.710571,634.366028 757.330383,632.068481 762.322693,631.197632 
	C781.357910,627.877075 800.479736,624.996765 819.856750,628.739685 
	C830.152527,630.728455 840.843872,629.988464 850.990295,632.842773 
	C861.832947,635.893005 872.592407,639.265686 883.284363,642.810730 
	C887.026794,644.051636 891.431519,642.568604 894.496033,637.100830 
	C897.457458,631.816956 902.856323,627.791138 903.054626,621.019714 
	C903.080505,620.135132 903.792725,619.511475 904.738464,619.506165 
	C905.888184,619.499695 906.634705,620.248718 906.888123,621.264465 
	C907.464417,623.575012 907.429993,625.917664 906.494263,628.135437 
	C904.747131,632.276489 903.278992,636.595032 901.023926,640.447021 
	C898.191162,645.285828 898.699219,649.114441 902.695923,652.913330 
	C909.516296,659.396118 913.374634,667.261902 915.606567,676.573425 
	C918.170227,687.268982 907.510498,700.032288 896.135071,700.816895 
	C877.363098,702.111755 858.916504,701.051270 840.778687,695.781677 
	C836.869934,694.646057 832.775391,694.798340 828.927917,696.031189 
	C815.289612,700.401428 801.126343,701.652283 787.029053,702.043457 
	C765.423218,702.643066 743.755371,703.301270 722.456726,697.600525 
	C713.191528,695.120667 703.533447,693.976379 693.990356,692.699890 
	C680.869873,690.944946 668.501953,686.320740 655.746460,683.192688 
	C641.691101,679.745850 627.418823,677.338623 613.407654,673.650696 
	C593.877686,668.510254 573.776855,667.182861 553.694885,666.032104 
	C551.874512,665.927795 550.008362,665.974182 548.209778,666.251038 
	C540.256287,667.475037 538.521606,670.314514 541.372681,677.701599 
	C545.163086,687.522827 543.527527,697.033264 538.286987,705.454224 
	C535.194946,710.422729 529.118958,713.149536 523.842834,715.852722 
	C511.026093,722.419495 489.731293,718.410706 479.650848,708.060303 
	C473.306091,701.545654 470.995483,686.140320 474.976562,676.895508 
	C477.667877,670.645752 476.590759,668.080322 469.862335,666.640625 
	C463.304993,665.237488 456.474426,665.308105 449.963409,666.411499 
	C433.266602,669.241028 416.382965,670.856628 399.917633,675.305359 
	C385.981445,679.070679 371.635101,681.299500 357.517822,684.423035 
	C352.502289,685.532715 347.680878,687.502625 342.678650,688.692200 
	C306.538147,697.286621 270.240234,704.673279 232.745743,702.959045 
	C222.941757,702.510803 213.269653,700.685974 203.408005,700.706909 
	C197.789642,700.718811 192.569580,697.934814 187.005264,696.853882 
	C178.665359,695.233765 171.219254,697.583862 163.419601,698.900513 
	C151.039276,700.990417 138.797501,704.435120 125.971069,701.579529 
	C121.006187,700.474121 115.831436,700.897949 110.935753,698.565857 
	C107.053543,696.716553 105.235954,693.919983 103.695656,690.260498 
	C97.959473,676.632080 103.326187,665.626587 111.909637,655.555847 
	C118.104164,648.288025 118.014313,646.069458 112.515694,637.777771 
	C108.726372,632.063599 106.239853,625.500916 108.663399,618.194275 
	C112.298317,618.536133 113.150597,621.221863 114.162918,623.302002 
	C116.456078,628.014160 119.777374,631.956787 122.911789,636.048340 
	C125.770027,639.779480 129.067673,640.959473 133.781281,638.854492 
	C151.596649,630.898621 170.557693,628.021790 189.806824,625.634827 
	C208.690994,623.293213 227.342087,624.315674 246.060867,626.066162 
	C253.667252,626.777466 261.129059,628.641907 268.480743,630.811035 
	C270.327881,631.356140 272.166229,632.589722 274.196655,631.197693 
	C274.957794,629.071655 273.339355,627.836731 272.449371,626.308960 
	C266.560303,616.200012 257.517273,608.387512 251.871277,598.118774 
	C244.185684,584.140442 235.683701,570.592102 229.560028,555.786194 
	C226.378784,548.094604 222.918671,540.514771 219.882828,532.767456 
	C213.544861,516.593323 209.892242,499.687836 207.046768,482.623871 
	C203.339859,460.393860 201.774994,437.955475 203.064056,415.461670 
	C204.147659,396.553314 206.705429,377.830688 210.714111,359.212708 
	C215.413559,337.386475 223.331100,316.885101 232.574188,296.759186 
	C235.345963,290.723846 237.782715,283.532196 242.033325,279.430939 
	C249.525711,272.201752 253.236526,262.738098 259.919098,255.193695 
	C268.166718,245.882431 274.865448,235.151794 283.443512,226.193130 
	C293.416382,215.777802 303.194489,205.116684 314.690277,196.118149 
	C326.471130,186.896469 338.344788,177.803436 351.069061,170.040115 
	C363.977081,162.164688 377.758514,155.757385 391.710541,149.852005 
	C406.729889,143.494888 421.861053,137.425262 438.429169,134.381165 
M528.711609,638.960144 
	C547.950867,634.500427 566.873779,628.351562 586.945129,628.399231 
	C593.256775,628.414246 599.568054,627.912170 605.881897,627.826843 
	C612.543701,627.736755 619.254822,627.365112 625.863403,627.983093 
	C648.374756,630.088257 670.915344,632.101013 693.305969,635.163879 
	C701.576355,636.295227 706.400513,633.160278 711.463562,627.735413 
	C715.969482,622.907471 718.429688,616.848206 722.521362,611.770752 
	C729.567261,603.027466 736.719971,594.398193 742.970337,584.943359 
	C753.012695,569.752258 760.848022,553.422607 769.676208,537.609924 
	C771.536194,534.278320 773.289307,530.798401 774.452026,527.181152 
	C780.301941,508.982300 785.247009,490.617462 788.229553,471.623169 
	C792.192871,446.382263 792.892090,421.222107 789.353577,396.025177 
	C784.571716,361.975464 774.859436,329.448212 757.842590,299.301300 
	C752.952393,290.637878 749.106628,281.305908 744.318787,272.689270 
	C738.488586,262.196655 730.087952,253.063629 722.335205,243.727783 
	C715.009583,234.906174 706.472961,227.302383 697.720276,219.807800 
	C686.746094,210.411026 676.736633,200.014328 663.957825,192.767960 
	C651.688904,185.810730 640.445801,177.243256 627.345276,171.489441 
	C609.862549,163.810928 591.744568,158.576691 573.266113,154.246246 
	C560.772705,151.318405 548.100586,149.451782 535.325806,148.612152 
	C522.212891,147.750305 509.064117,146.476730 495.913696,147.541107 
	C474.160858,149.301773 452.577423,152.163254 431.436249,157.903610 
	C416.453888,161.971710 401.481873,166.627579 388.013000,174.004166 
	C367.529663,185.222351 347.132904,196.613876 329.067963,212.075333 
	C311.874695,226.790741 296.583893,242.986816 282.036591,260.136658 
	C272.583008,271.281525 266.603485,284.603302 258.256470,296.415375 
	C253.699081,302.864685 250.841003,310.157562 247.822784,317.366852 
	C242.023605,331.218719 239.444611,346.017731 235.476105,360.394928 
	C230.052505,380.043671 228.280548,400.321014 227.226776,420.621490 
	C226.046753,443.354279 228.304733,465.852325 232.505157,488.171844 
	C236.994415,512.026062 244.162323,535.268188 255.487106,556.549194 
	C269.641479,583.147522 287.374512,607.578186 308.274811,629.550903 
	C312.531616,634.026123 317.067505,635.535828 322.975342,634.807251 
	C340.799133,632.609314 358.692139,630.999268 376.548889,629.115662 
	C401.564423,626.476929 426.655823,625.649170 451.632263,630.656189 
	C469.768036,634.291992 487.804565,637.974976 503.881714,647.767639 
	C507.089417,649.721497 510.106934,649.765991 513.105835,647.324585 
	C517.550598,643.706299 522.762634,641.463074 528.711609,638.960144 
M298.295044,676.919373 
	C300.622162,677.033813 302.462463,679.261902 304.969452,678.520813 
	C317.273132,674.883789 330.154266,673.518860 342.358368,669.759094 
	C361.268250,663.933472 380.638550,661.616455 400.177094,659.964233 
	C416.085297,658.619019 431.990356,657.157715 447.924835,656.227356 
	C460.208527,655.510132 472.494080,655.278503 484.216827,660.536316 
	C490.902496,663.535034 496.142609,668.333801 501.715302,672.759705 
	C508.040985,677.783691 509.571899,677.742249 514.631165,671.498352 
	C517.282837,668.225708 520.155151,665.084167 524.040588,663.481201 
	C537.194946,658.054382 550.863708,654.888733 565.187866,655.922974 
	C580.619812,657.037170 596.027710,658.484558 611.446411,659.782776 
	C619.560974,660.466064 627.853699,662.479736 635.739990,661.434204 
	C643.262939,660.436890 650.067566,661.182007 657.179016,662.860413 
	C675.141357,667.099792 693.109070,671.342712 711.168640,675.136780 
	C730.718262,679.244019 750.390564,682.743591 770.412598,683.656677 
	C773.456970,683.795532 776.576904,684.068909 779.682251,682.362671 
	C777.660400,680.760498 775.763977,679.640442 773.597534,679.512817 
	C766.536743,679.096985 759.851135,676.940125 753.191895,674.939636 
	C739.007202,670.678284 724.713318,666.814026 710.268616,663.638977 
	C689.000183,658.963867 667.649048,654.567200 645.923828,652.511780 
	C639.898376,651.941711 635.167969,648.121094 629.033569,647.301147 
	C595.388367,642.804077 562.328430,645.364258 529.586670,653.762024 
	C527.969177,654.176880 526.484619,654.788513 525.195068,655.986389 
	C515.082581,665.380554 507.909424,666.048706 496.267822,658.993896 
	C486.870331,653.299011 476.286499,650.380554 465.726410,648.617004 
	C457.446198,647.234131 448.955231,646.259094 440.464355,645.692749 
	C417.914215,644.188477 395.498260,645.290100 373.325043,649.167847 
	C362.983856,650.976318 352.476074,650.946106 342.221954,653.296509 
	C329.439575,656.226501 316.482330,658.409546 303.742462,661.499939 
	C299.883514,662.435974 296.723236,665.545898 292.540894,666.583923 
	C275.426544,670.831421 258.402954,675.445190 241.354675,679.957214 
	C239.374130,680.481384 237.227005,680.880554 235.665573,683.945862 
	C257.068604,684.006531 277.284515,680.651855 298.295044,676.919373 
M772.501831,641.225647 
	C763.005920,641.200500 753.510010,641.153198 744.014221,641.170044 
	C742.243591,641.173218 739.967590,640.809753 739.530029,643.241333 
	C739.156189,645.318298 741.273987,645.838318 742.642578,646.652649 
	C746.721497,649.079590 751.422852,649.671692 755.897278,650.831360 
	C767.793152,653.914673 780.064087,655.259460 791.757202,659.457703 
	C804.736023,664.117615 818.079773,667.750793 831.189819,672.058777 
	C841.472290,675.437561 851.116211,675.094421 860.078735,668.422913 
	C861.674744,667.234802 863.492737,666.347778 865.187683,665.288879 
	C867.465576,663.865723 869.979370,662.466553 869.828491,659.315125 
	C869.667847,655.959900 866.888794,654.784790 864.342102,653.468323 
	C852.107788,647.143555 838.420349,645.482056 825.294678,643.923340 
	C808.212036,641.894775 790.839355,640.675659 772.501831,641.225647 
M218.244522,659.610718 
	C231.805237,655.729736 245.022446,650.527588 259.268372,649.287598 
	C261.938538,649.055176 264.728943,648.170288 266.002625,645.252075 
	C264.208679,643.116882 262.006531,643.142578 259.854614,643.216187 
	C241.592468,643.840881 223.313599,642.673096 205.046829,644.163513 
	C186.901672,645.644165 169.286270,649.460815 151.971100,654.851990 
	C149.429123,655.643433 146.855423,657.345520 146.585068,660.210266 
	C146.331406,662.898193 149.054123,663.847412 151.071732,664.969482 
	C151.943558,665.454407 152.851990,665.873535 153.724075,666.358032 
	C164.214905,672.185791 174.698868,674.079346 186.644470,669.714355 
	C196.736435,666.026733 207.298080,663.465332 218.244522,659.610718 
M493.983795,697.452454 
	C498.505707,700.431091 502.635498,704.637085 508.373047,704.660156 
	C516.643494,704.693420 525.766785,693.424316 524.768494,685.123596 
	C524.581360,683.567566 524.240601,682.120056 522.619141,681.498169 
	C520.898438,680.838196 519.761414,681.950989 518.765930,683.081787 
	C516.575317,685.570129 514.592285,688.255371 512.273499,690.613342 
	C508.896057,694.047974 506.031891,693.859741 503.240845,689.978088 
	C501.080109,686.972961 498.636292,684.306885 495.680542,682.122986 
	C492.679688,679.905823 490.768860,680.593628 490.179749,684.245239 
	C489.429688,688.894836 490.676758,693.129028 493.983795,697.452454 
M128.707825,683.633240 
	C132.843842,683.600220 136.984314,683.669189 141.113937,683.489380 
	C143.062302,683.404602 145.396530,683.246765 146.232407,681.116577 
	C147.163330,678.744080 144.882385,677.641724 143.506470,676.346436 
	C141.703537,674.649231 139.765793,673.092529 137.854233,671.513916 
	C131.059738,665.902710 128.238052,666.186096 122.795845,673.084229 
	C121.878601,674.246765 121.059914,675.518005 120.387032,676.836609 
	C118.499886,680.534973 119.694435,682.856018 123.818497,683.497620 
	C125.115776,683.699402 126.460770,683.594604 128.707825,683.633240 
M883.052185,668.696045 
	C879.316956,671.160767 875.545532,673.573181 871.865662,676.117981 
	C870.527954,677.043030 868.994995,678.155518 869.437561,680.106262 
	C869.906494,682.172913 871.687073,683.044250 873.562866,683.123840 
	C878.851501,683.348328 884.153198,683.505981 889.442139,683.378235 
	C891.995972,683.316589 894.482178,682.249756 895.193237,679.433350 
	C896.426758,674.547119 888.871765,667.382751 883.052185,668.696045 
z"/>
<path fill="#000000" opacity="1.000000" stroke="none" 
	d="
M816.483032,841.892822 
	C820.399292,855.895203 828.230713,861.777344 841.484619,861.008667 
	C845.892700,860.752991 849.224182,858.879822 850.932983,854.807190 
	C852.651855,850.710205 850.733459,847.448608 848.000549,844.450073 
	C843.955444,840.011963 838.275940,838.109131 833.431946,834.915100 
	C830.109497,832.724243 826.552551,830.892334 823.141113,828.832703 
	C812.529541,822.425842 808.060181,813.467285 810.233032,804.218018 
	C813.485352,790.374084 825.168213,784.527344 835.016846,784.022156 
	C838.020935,783.868042 840.994446,783.972534 843.872925,785.105713 
	C848.560303,786.951233 853.164856,788.632141 858.132446,785.421143 
	C860.569824,783.845642 862.024231,785.876099 862.064880,788.113098 
	C862.207214,795.937805 862.116333,803.767639 862.033325,811.594727 
	C862.019104,812.934753 861.610657,814.508972 859.942200,814.529053 
	C857.763916,814.555359 856.224670,813.262146 855.383362,811.238281 
	C853.245972,806.096008 850.419312,801.454895 846.036865,797.868042 
	C842.386597,794.880310 833.417114,794.107971 829.444214,796.528992 
	C824.942932,799.272095 823.974670,803.487610 826.754333,808.082764 
	C829.578857,812.752197 834.131592,815.125244 838.845154,817.325806 
	C846.648254,820.968689 854.491394,824.201538 861.191589,830.162109 
	C874.230042,841.761108 868.619995,859.684509 856.466125,867.465332 
	C846.914917,873.579773 836.852478,872.793213 826.603699,870.506165 
	C822.599060,869.612488 818.976440,867.814331 814.514038,869.474182 
	C811.426025,870.622803 809.808044,867.905579 809.592529,864.830200 
	C809.424744,862.435730 810.241638,859.778809 807.734497,858.007080 
	C805.114563,858.453430 804.489441,860.792603 803.330505,862.500305 
	C800.525269,866.634033 797.029785,869.773743 792.134827,871.192444 
	C778.255981,875.214844 768.151245,865.558655 767.955505,852.083984 
	C767.728027,836.425659 767.905457,820.761597 767.869934,805.100159 
	C767.853149,797.707581 767.642944,798.026062 760.497437,796.937256 
	C753.619934,795.889282 746.938049,797.899902 740.141357,797.258728 
	C737.487061,797.008301 736.192017,798.646973 736.197571,801.275757 
	C736.233337,818.268372 735.914185,835.272583 736.458557,852.248962 
	C736.745789,861.205750 739.389343,863.003723 748.688965,863.811768 
	C751.029907,864.015198 753.947205,864.170349 753.804138,867.233887 
	C753.683899,869.810120 751.015442,870.222168 748.766602,870.223694 
	C735.449463,870.232605 722.132385,870.202209 708.815247,870.178528 
	C706.714661,870.174805 704.348938,869.848755 704.062927,867.493896 
	C703.727905,864.734375 706.218384,864.238159 708.410034,863.709167 
	C714.979187,862.123657 716.336670,860.245605 716.798157,853.322205 
	C717.906982,836.688538 716.571838,820.047974 717.058105,803.415833 
	C717.185059,799.074036 715.479492,796.885925 710.872070,797.142151 
	C707.185974,797.347168 703.572449,796.845703 703.277588,792.023987 
	C703.036377,788.079224 705.728149,785.869751 711.167664,785.958435 
	C716.116638,786.039185 717.190063,783.562378 717.507385,779.161194 
	C718.652344,763.279419 725.150818,750.276123 740.671631,744.380676 
	C751.573669,740.239624 766.127808,742.010193 773.597778,751.721619 
	C777.347107,756.596069 777.328857,760.563660 773.261597,764.580566 
	C769.573303,768.223206 765.190735,768.327087 760.789795,764.491516 
	C758.165833,762.204590 755.968872,759.433960 753.506897,756.953308 
	C750.775024,754.200684 747.621460,752.685974 743.594543,753.751160 
	C739.466858,754.843079 738.481262,758.054382 737.905640,761.682922 
	C736.887756,768.098572 735.906860,774.505920 736.108215,781.039551 
	C736.198730,783.978271 737.233337,785.762146 740.466187,785.890564 
	C746.191956,786.117859 752.121704,784.783813 757.416382,788.448120 
	C758.718445,789.349243 760.194275,787.915283 761.457886,787.101868 
	C769.618103,781.849426 774.510559,773.953735 778.755920,765.580444 
	C779.873413,763.376221 780.859192,761.158325 783.768921,761.733276 
	C786.572815,762.287292 787.160645,764.627502 787.181702,767.116882 
	C787.221069,771.781738 787.299500,776.448364 787.215088,781.111511 
	C787.153809,784.496704 788.687012,785.999756 792.028381,785.939331 
	C794.691772,785.891174 797.367798,785.866821 800.020447,786.067566 
	C803.909363,786.361694 805.634033,789.000549 805.580627,792.507874 
	C805.530579,795.796875 802.907532,796.820801 800.030884,797.099243 
	C799.039795,797.195190 798.033264,797.140076 797.033813,797.141541 
	C787.259033,797.156006 787.250305,797.155273 787.246094,806.687012 
	C787.240234,820.182495 787.307861,833.678345 787.214661,847.173157 
	C787.187439,851.105042 787.825256,854.624084 791.736023,856.378784 
	C795.302002,857.978821 798.125854,856.263733 800.674194,853.759521 
	C801.472351,852.975220 802.726624,851.938171 803.610657,852.073242 
	C809.797852,853.018616 809.942139,849.096863 809.853882,844.782288 
	C809.809265,842.601440 810.883545,840.874695 812.759460,839.873291 
	C814.499573,838.944397 815.529541,840.154846 816.483032,841.892822 
z"/>
<path fill="#000000" opacity="1.000000" stroke="none" 
	d="
M279.292603,844.998474 
	C279.294647,851.494507 279.389954,857.492615 279.245026,863.484985 
	C279.175934,866.341187 280.173126,869.879150 276.597595,871.407043 
	C272.856903,873.005371 270.667542,870.156311 268.677124,867.733459 
	C261.811401,859.375977 255.050720,850.931824 248.278732,842.497620 
	C234.113144,824.854919 219.963455,807.199341 205.815643,789.542358 
	C204.662399,788.103088 203.518417,786.300354 201.511856,786.589417 
	C199.512009,786.877502 199.271500,788.882263 199.307114,790.570312 
	C199.745987,811.369385 198.192902,832.195801 200.060379,852.971191 
	C200.624008,859.241394 202.199097,860.715271 208.275269,861.655457 
	C208.931396,861.757080 209.603745,861.749634 210.266632,861.812927 
	C212.896973,862.064331 215.758881,862.836304 215.733292,865.782288 
	C215.706314,868.886292 212.813889,870.166992 209.994385,870.182861 
	C198.503494,870.247681 187.010651,870.180481 175.520569,870.017944 
	C172.906738,869.981018 170.246536,868.985352 170.124176,865.921021 
	C170.006500,862.973694 172.753830,862.394653 175.019058,861.875854 
	C184.696747,859.659302 185.968689,858.160339 185.972305,848.458252 
	C185.981339,824.137634 185.976471,799.817017 185.972214,775.496399 
	C185.970230,764.203491 180.759109,758.462769 169.402924,757.198486 
	C168.419540,757.089050 167.345779,757.076294 166.493057,756.655640 
	C164.666107,755.754517 163.970932,754.006714 164.088638,752.081726 
	C164.201614,750.234070 165.323288,748.908264 167.193939,748.679199 
	C176.802536,747.503113 186.532120,747.054016 196.018295,748.698975 
	C202.033020,749.741943 205.042923,755.858459 208.675339,760.279358 
	C222.397491,776.980347 235.857071,793.898865 249.279205,810.843445 
	C252.795059,815.281982 256.161652,819.824829 260.176666,823.835999 
	C261.302155,824.960449 262.043579,827.034607 264.051117,826.370300 
	C266.273193,825.635071 265.853943,823.399475 265.856750,821.639709 
	C265.880127,806.980652 265.853882,792.321594 265.818817,777.662476 
	C265.809662,773.831848 265.859406,769.992920 265.629639,766.172974 
	C265.268036,760.161011 263.081573,758.017212 257.048889,757.218628 
	C255.745224,757.046082 254.385406,756.849854 253.201630,756.325439 
	C251.481247,755.563354 249.931946,754.260620 250.105789,752.214844 
	C250.275452,750.218323 251.874893,748.988037 253.725067,748.511353 
	C255.312546,748.102417 257.010437,747.988892 258.660828,747.979614 
	C267.822510,747.928101 276.984619,747.936829 286.146515,747.955139 
	C287.642700,747.958130 289.172363,747.943054 290.626678,748.234863 
	C292.881226,748.687378 295.016357,750.053589 295.142090,752.302429 
	C295.286438,754.884888 293.022034,756.292297 290.657227,756.909546 
	C279.692749,759.771545 279.261108,760.129028 279.234161,771.546265 
	C279.176788,795.863403 279.261047,820.180908 279.292603,844.998474 
z"/>
<path fill="#000000" opacity="1.000000" stroke="none" 
	d="
M609.501526,870.775391 
	C588.191711,873.575745 567.663940,873.383301 549.699341,860.356628 
	C534.375427,849.244812 525.503845,834.349792 524.689880,814.924255 
	C523.660217,790.351318 533.913330,771.174561 553.241821,757.215942 
	C567.216980,747.123535 583.584656,744.123291 600.811035,747.097473 
	C607.718506,748.290161 614.419983,750.188904 620.896606,752.803772 
	C624.147522,754.116333 625.480530,752.282043 626.797668,749.991150 
	C627.714722,748.396118 628.618774,746.462463 630.813843,746.920471 
	C632.856995,747.346680 633.584290,749.362732 633.742493,751.184265 
	C634.706909,762.283081 635.657104,773.389038 635.192322,784.550903 
	C635.134521,785.938232 634.818420,787.333130 633.125916,787.499634 
	C631.292908,787.679993 629.891296,786.753601 629.040771,785.169495 
	C626.999390,781.367126 625.564697,777.265930 623.089355,773.667603 
	C615.697083,762.921448 605.740784,757.163635 592.497009,757.166382 
	C585.093811,757.167908 577.928345,757.678772 571.212585,761.263916 
	C559.354370,767.594116 553.082458,778.124451 549.625305,790.460388 
	C545.121399,806.531311 547.232422,822.030029 555.202209,836.697510 
	C564.121521,853.112549 583.914856,864.299255 603.593811,858.142029 
	C618.080627,853.609253 615.822998,853.818298 615.093079,842.709961 
	C614.571106,834.766418 615.839722,826.798889 614.031433,818.832214 
	C612.657654,812.779846 608.904297,810.219116 603.402527,809.231445 
	C600.954224,808.791809 597.970276,808.971375 598.069519,805.397400 
	C598.170837,801.748169 600.870972,800.754211 603.983643,800.753784 
	C616.474792,800.751953 628.965942,800.820374 641.457092,800.850586 
	C643.535645,800.855652 645.502197,801.242310 646.862305,802.927185 
	C648.627747,805.114258 649.011841,807.620667 645.739319,808.316101 
	C637.176331,810.135620 636.085815,816.507629 635.948914,823.494507 
	C635.743469,833.983276 635.587708,844.476868 635.682373,854.965942 
	C635.721375,859.289856 634.384644,862.076843 630.277100,864.023010 
	C623.737549,867.121521 616.794128,868.746948 609.501526,870.775391 
z"/>
<path fill="#000000" opacity="1.000000" stroke="none" 
	d="
M374.425629,849.306519 
	C369.703247,858.047546 363.661163,865.010620 354.714050,868.885376 
	C337.968567,876.137573 317.552765,871.994263 307.010101,853.942383 
	C295.529755,834.284912 297.920959,811.742676 313.524658,795.016235 
	C328.215698,779.268127 355.351746,780.309265 368.812775,797.180054 
	C381.606750,813.214722 383.350159,830.519043 374.425629,849.306519 
M328.583557,852.839722 
	C329.449524,853.849548 330.304779,854.868713 331.183258,855.867554 
	C335.245728,860.486694 340.122192,862.678040 346.294495,860.818787 
	C351.895935,859.131592 354.878906,855.195129 356.522614,849.674866 
	C359.112183,840.978210 358.120667,832.166321 357.714020,823.418335 
	C357.313293,814.798767 354.515686,807.005981 348.437347,800.390076 
	C340.476593,791.725342 327.036926,793.796204 323.640594,804.994629 
	C318.720917,821.215759 320.157440,837.108276 328.583557,852.839722 
z"/>
<path fill="#000000" opacity="1.000000" stroke="none" 
	d="
M474.077698,821.951233 
	C477.149170,827.225159 477.859344,833.412170 482.657379,837.381287 
	C486.852264,836.166626 486.594788,832.204285 487.973358,829.397705 
	C492.304749,820.579590 495.705383,811.370117 499.061279,802.152466 
	C500.438904,798.368652 501.030640,794.630188 496.519226,792.214844 
	C495.196564,791.506653 494.842499,790.185059 495.309723,788.750366 
	C495.712311,787.514038 496.650391,786.925171 497.924683,786.772827 
	C504.211731,786.021118 510.502228,785.302856 516.821960,786.374084 
	C520.286865,786.961487 521.789612,789.769714 519.330994,791.879272 
	C508.519440,801.156067 506.915619,815.022949 501.539612,826.930603 
	C494.574432,842.358398 489.057068,858.414429 482.298706,873.962524 
	C478.590149,882.494263 475.892883,891.395996 469.536926,898.586731 
	C463.259247,905.688721 455.667389,908.650818 446.338745,907.201355 
	C439.102081,906.076965 434.841278,898.692810 437.605652,892.357788 
	C439.707733,887.540588 443.987122,887.574219 448.138855,887.407104 
	C450.116730,887.327515 452.121552,887.682617 454.101746,887.937256 
	C462.085175,888.964172 462.817322,888.773987 466.711578,881.624268 
	C469.173370,877.104492 471.144867,872.312500 473.234100,867.597412 
	C474.099060,865.645386 473.576355,863.748230 472.668091,861.842712 
	C463.728699,843.088074 454.803040,824.326660 445.967773,805.522888 
	C443.870422,801.059143 441.095581,797.223083 437.288635,794.091919 
	C435.555634,792.666626 434.154022,790.943176 435.019196,788.480347 
	C435.933258,785.878296 438.270477,785.889343 440.441528,785.920959 
	C449.590118,786.054077 458.762207,785.208557 467.884033,786.577698 
	C469.390778,786.803833 471.036804,786.783936 471.349121,788.719360 
	C471.659424,790.642517 470.795654,791.830078 468.831573,792.369873 
	C464.441956,793.576294 463.833252,796.814331 464.746185,800.636597 
	C465.994995,805.865173 468.858734,810.425598 471.010345,815.280701 
	C471.950714,817.402649 472.935425,819.504944 474.077698,821.951233 
z"/>
<path fill="#000000" opacity="1.000000" stroke="none" 
	d="
M388.129517,754.963623 
	C391.568115,749.618835 397.525696,748.794312 402.465668,746.390076 
	C405.969299,744.684937 409.692993,743.017090 413.757904,742.588989 
	C417.321838,742.213623 419.168335,743.524658 419.156036,747.222961 
	C419.135498,753.383667 419.167908,759.544556 419.168396,765.705322 
	C419.170654,793.679077 419.167389,821.652893 419.171143,849.626648 
	C419.172089,856.492432 419.921051,862.840332 428.593353,864.150085 
	C429.923828,864.351013 431.062347,865.432800 430.985565,866.965820 
	C430.883209,869.010193 429.259155,869.839355 427.559967,869.963379 
	C423.593781,870.252991 419.647125,870.589966 415.623108,870.378845 
	C408.982239,870.030518 402.309753,870.289734 395.650574,870.283081 
	C393.292389,870.280701 390.501007,870.434204 389.884857,867.576294 
	C389.198761,864.394104 392.123169,863.847961 394.329132,863.369751 
	C398.342682,862.499695 399.691345,859.811584 399.844727,856.134155 
	C401.114227,825.700439 401.365875,795.268494 399.735352,764.837158 
	C399.524689,760.904968 397.742615,758.678711 393.690552,758.305786 
	C391.501923,758.104309 389.464233,757.359619 388.129517,754.963623 
z"/>
<path fill="#000000" opacity="1.000000" stroke="none" 
	d="
M654.578674,799.396973 
	C652.891174,795.932495 654.296631,794.055298 657.166870,792.823181 
	C663.264954,790.205505 669.350342,787.558167 675.449890,784.943970 
	C680.384460,782.829163 683.496094,784.971252 683.488831,790.474121 
	C683.467224,806.753601 683.363037,823.033508 683.447266,839.312439 
	C683.475586,844.788330 683.879456,850.268616 684.283508,855.734253 
	C684.610962,860.163574 687.439636,862.486328 691.517944,863.559204 
	C693.512878,864.083923 695.784180,864.806580 695.565918,867.217529 
	C695.318970,869.945862 692.755005,870.210266 690.559509,870.222473 
	C679.734558,870.282959 668.909180,870.272644 658.083923,870.262329 
	C655.988464,870.260376 653.927063,870.024902 653.800720,867.252991 
	C653.680359,864.610657 655.479919,864.118408 657.647278,863.666687 
	C662.580017,862.638489 664.523376,859.411255 664.861511,854.380737 
	C665.800049,840.416016 664.844482,826.476318 664.801147,812.527161 
	C664.767944,801.862366 664.723938,801.862488 654.578674,799.396973 
z"/>
<path fill="#000000" opacity="1.000000" stroke="none" 
	d="
M663.230042,754.507507 
	C662.891052,749.526428 663.727783,745.125732 668.477661,743.432678 
	C673.195190,741.751099 677.948059,742.409790 681.797119,746.218628 
	C684.442444,748.836304 684.153259,756.445312 681.255493,759.422668 
	C677.077026,763.716064 670.071716,764.006775 666.094177,760.052490 
	C664.647156,758.613892 663.668884,756.922058 663.230042,754.507507 
z"/>
<path fill="#000000" opacity="1.000000" stroke="none" 
	d="
M509.170837,337.671875 
	C506.265381,331.073181 504.812134,324.415375 502.987915,317.852509 
	C497.184326,296.973419 489.212067,276.915955 479.897827,257.343445 
	C475.372986,247.835129 471.348358,238.079453 463.158722,231.038422 
	C457.995117,226.599014 452.702301,222.175613 446.937500,218.599182 
	C436.578247,212.172394 416.995087,213.685638 408.644836,226.955719 
	C404.994110,232.757309 405.774628,238.834930 406.971771,244.830887 
	C409.669464,258.342133 418.186462,268.787140 426.171173,279.416901 
	C434.873322,291.001831 447.207367,298.728607 457.672241,308.449493 
	C474.855835,324.411407 494.744110,337.293823 511.187317,353.981598 
	C517.330688,360.216370 522.686401,361.266937 530.891602,361.403534 
	C585.695374,362.315704 640.496704,361.665802 695.296753,361.906616 
	C700.800232,361.930786 706.267456,362.185852 711.741333,362.710510 
	C715.183167,363.040405 717.422913,364.343292 717.596802,368.119812 
	C717.696045,370.274353 718.099426,372.421417 718.106323,374.572662 
	C718.197632,402.901489 718.217529,431.230499 718.332764,459.559204 
	C718.346191,462.874359 718.941406,466.183563 719.054749,469.502777 
	C719.271912,475.866577 718.062927,477.086365 711.597778,477.102905 
	C689.272522,477.160095 666.947205,477.203888 644.621887,477.203827 
	C610.792480,477.203705 576.962891,477.207855 543.133728,477.098297 
	C536.821777,477.077881 530.501892,476.661377 524.203369,476.190277 
	C518.156372,475.737976 516.015015,472.823181 515.737183,466.111908 
	C514.434387,434.640594 515.173584,403.154785 514.946716,371.676178 
	C514.887695,363.481018 514.750427,363.338837 506.537201,362.014587 
	C504.381989,361.667084 502.317139,361.141754 500.593719,359.640839 
	C498.677673,357.972168 495.983490,357.282227 494.037933,358.311066 
	C490.284912,360.295776 487.449890,358.815674 484.425629,357.097382 
	C477.523895,353.176178 469.623260,353.542267 462.178711,351.999695 
	C448.501129,349.165619 435.026855,345.072174 421.048126,344.008392 
	C397.151489,342.189850 373.206635,339.743011 349.243744,341.241882 
	C330.402069,342.420471 312.494659,348.111389 294.711182,354.619598 
	C279.835785,360.063599 267.213409,368.547150 254.932449,377.996582 
	C253.108612,379.399902 251.284607,381.551453 248.813843,380.567444 
	C245.923599,379.416351 246.695892,376.416595 246.531448,373.977051 
	C246.348831,371.267822 246.875504,368.658600 247.549927,366.079071 
	C251.282837,351.801788 255.833984,338.077026 267.839813,328.063110 
	C273.032227,323.732178 276.933807,317.759247 282.716675,314.142212 
	C300.406464,303.077606 319.917542,299.360870 340.558868,300.843323 
	C350.686340,301.570618 360.903778,301.706665 370.913361,303.217499 
	C379.910309,304.575470 388.794281,307.068268 397.524384,309.728912 
	C416.933380,315.644104 436.071533,322.380646 454.898224,329.975861 
	C455.959015,330.403809 457.129150,330.620392 458.270142,330.775208 
	C459.773743,330.979218 461.422424,331.101471 462.210907,329.437378 
	C462.888153,328.008026 461.900909,326.801300 460.997650,325.878998 
	C459.022125,323.861938 456.966125,321.906525 454.802063,320.094208 
	C442.366211,309.679443 428.822021,300.663605 416.763855,289.752380 
	C411.997131,285.439087 408.636230,280.089813 404.610840,275.232697 
	C399.207123,268.712494 392.916779,262.882050 388.886200,255.290878 
	C382.051422,242.418396 376.108826,229.259659 377.971588,214.115356 
	C379.252167,203.704575 385.381226,195.985474 393.284668,189.911972 
	C399.038849,185.490097 405.583313,182.091843 412.064270,178.648773 
	C426.183929,171.147583 444.940491,174.905426 456.963593,187.312988 
	C461.898468,192.405655 468.159149,195.922241 472.121521,202.303406 
	C477.012421,210.180038 480.328735,218.683594 483.876892,227.063263 
	C491.592407,245.285172 499.120087,263.618652 504.133179,282.838837 
	C504.629425,284.741455 505.379303,286.513367 507.565979,286.507416 
	C509.684082,286.501648 510.748566,284.722931 511.295685,282.947876 
	C513.606567,275.450531 514.483704,267.643829 515.545227,259.931946 
	C516.917297,249.963196 519.292969,240.173141 522.967957,231.010529 
	C528.042664,218.358124 546.485779,203.485153 563.658020,206.200302 
	C580.565613,208.873550 592.821350,217.654312 602.230591,230.305954 
	C606.836914,236.499649 606.720581,245.585556 605.940369,253.960495 
	C604.369690,270.820312 594.721252,283.551147 585.262329,296.414581 
	C582.319702,300.416321 579.525085,304.563599 575.921326,308.101349 
	C573.847717,310.136993 573.517334,312.931396 575.657104,315.327972 
	C578.024780,317.979858 579.867981,315.831146 582.140503,314.692627 
	C590.746948,310.381012 599.496643,306.350311 608.244812,302.327728 
	C620.008850,296.918365 631.416809,290.798431 643.805725,286.680939 
	C662.533386,280.456696 681.257324,277.575165 701.095337,280.612000 
	C712.010437,282.282898 721.325073,286.730499 730.537109,291.917816 
	C736.002075,294.995148 741.085632,298.796722 746.141663,302.541382 
	C752.685486,307.387939 755.974304,314.704346 759.245850,321.749939 
	C762.597351,328.967804 765.005615,336.628448 767.728210,344.131012 
	C768.694397,346.793518 769.239868,349.570770 769.239685,352.450012 
	C769.239441,355.381348 769.217468,358.261810 765.868103,359.511993 
	C762.484070,360.775146 759.891174,359.068054 757.980957,356.664673 
	C754.672607,352.502197 751.019714,348.396545 748.750793,343.671814 
	C744.535461,334.893494 736.781555,330.289246 728.997681,326.041046 
	C714.805054,318.295197 700.103394,311.552734 683.672913,309.882782 
	C669.806702,308.473480 656.081665,309.349487 642.511414,312.488434 
	C613.195251,319.269531 585.271545,329.955200 558.083740,342.693359 
	C550.232117,346.372009 543.380981,351.835938 535.398010,355.305725 
	C532.424438,356.598175 529.536133,358.580963 526.952881,355.114838 
	C524.466980,351.779327 525.471985,348.299866 527.924683,345.510040 
	C530.995239,342.017426 534.617554,339.016296 537.797424,335.612122 
	C552.483276,319.890015 565.844666,303.068573 576.113708,284.160309 
	C582.723633,271.989624 585.037598,258.944641 578.354126,245.482712 
	C571.868225,232.419022 554.538025,228.809464 544.349060,239.263809 
	C532.708252,251.207870 526.335510,265.674530 522.996826,282.213776 
	C519.397278,300.045685 517.143066,317.952148 515.275269,335.974731 
	C514.825684,340.312592 513.501892,340.692810 509.170837,337.671875 
z"/>
<path fill="#000000" opacity="1.000000" stroke="none" 
	d="
M403.000000,477.216461 
	C378.848083,477.206848 355.192749,476.975952 331.546783,477.345642 
	C325.871216,477.434387 321.551971,473.046204 315.766602,474.104645 
	C312.549927,474.693085 309.125458,474.098145 305.795410,474.126923 
	C302.236725,474.157684 300.652588,472.493622 300.749512,468.919281 
	C300.862213,464.762238 300.760773,460.599487 300.757812,456.439209 
	C300.739197,430.150482 300.716370,403.861725 300.715912,377.572998 
	C300.715851,375.576569 300.807251,373.574005 300.979034,371.584930 
	C301.359375,367.180695 303.716309,365.213806 308.230499,365.199921 
	C322.021576,365.157562 336.138428,366.734070 349.535217,364.348724 
	C378.003876,359.279785 406.482880,363.614349 434.867767,361.765320 
	C440.014618,361.430054 443.839539,364.797333 448.779907,364.721039 
	C461.759796,364.520538 474.746460,364.742767 487.730286,364.817169 
	C495.658813,364.862579 497.071198,366.143524 497.343872,374.018280 
	C498.310455,401.934753 498.222931,429.863464 498.119110,457.790131 
	C498.103180,462.079193 496.889984,466.337555 498.238403,470.659882 
	C498.871399,472.688782 497.115265,473.547607 495.603027,474.336426 
	C492.230804,476.095428 488.547272,476.066864 484.888489,476.284210 
	C457.773254,477.894867 430.630463,477.003082 403.000000,477.216461 
z"/>
<path fill="#000000" opacity="1.000000" stroke="none" 
	d="
M324.835144,563.000000 
	C324.991272,544.029419 325.206635,525.559082 325.268188,507.088196 
	C325.285095,502.020233 328.348328,500.370880 332.553558,500.061035 
	C338.696442,499.608459 344.861542,499.216583 351.016907,499.220764 
	C367.156860,499.231812 383.296844,499.605927 399.436432,499.578857 
	C413.561981,499.555176 427.705078,498.640594 441.807281,499.111816 
	C456.961395,499.618195 472.106201,499.541168 487.254700,499.756012 
	C494.379822,499.857025 497.064453,502.349701 497.080231,509.344330 
	C497.154968,542.497253 497.096497,575.650513 497.078461,608.803650 
	C497.075775,613.778015 495.484100,618.568787 495.719360,623.640991 
	C495.882233,627.151672 493.232361,627.829407 490.064819,626.577576 
	C483.253723,623.885742 476.396515,621.310425 469.556976,618.690613 
	C466.089417,617.362427 462.815826,617.310669 458.960449,617.984497 
	C454.399017,618.781738 449.350220,617.779175 444.679352,616.778748 
	C430.031281,613.641541 415.215576,614.351135 400.410767,614.008667 
	C390.271454,613.774231 380.657776,616.574219 370.765259,617.647705 
	C369.447266,617.790710 367.874725,618.453186 366.849274,617.967957 
	C359.534485,614.506775 353.161438,618.439636 346.884705,620.800964 
	C341.383698,622.870483 335.971222,623.439819 330.282379,623.411987 
	C327.152740,623.396606 325.639069,622.008118 325.627899,618.921387 
	C325.619446,616.589783 325.664154,614.257568 325.627319,611.926514 
	C325.372192,595.784241 325.101898,579.642151 324.835144,563.000000 
z"/>
<path fill="#000000" opacity="1.000000" stroke="none" 
	d="
M518.007019,587.916321 
	C517.925354,562.609924 517.836609,537.792236 517.765320,512.974548 
	C517.759521,510.978027 517.829163,508.978638 517.942017,506.985016 
	C518.194275,502.526672 520.323669,499.844879 525.015198,499.579285 
	C527.669434,499.429016 530.318176,499.006348 532.969543,499.004639 
	C581.941956,498.973145 630.914429,498.981293 679.886841,498.996490 
	C687.661987,498.998901 688.922607,500.301819 689.288879,508.181824 
	C690.921631,543.302429 689.765869,578.442322 689.992737,613.572388 
	C690.058411,623.742798 688.770142,624.632690 678.737671,624.160461 
	C673.975403,623.936401 669.527771,622.350891 665.275879,620.644714 
	C650.382324,614.668396 634.564941,613.457031 618.966492,611.363098 
	C603.028381,609.223633 587.225342,611.507690 571.359619,613.810486 
	C555.350464,616.134155 540.286255,620.844971 525.614380,627.325378 
	C521.016418,629.356140 519.371582,628.227661 519.149170,622.827698 
	C518.676697,611.357178 518.375671,599.879700 518.007019,587.916321 
z"/>
</svg>